<?xml version="1.0" standalone="yes"?>

<svg version="1.1" viewBox="0.0 0.0 960.0 720.0" fill="none" stroke="none" stroke-linecap="square" stroke-miterlimit="10" xmlns="http://www.w3.org/2000/svg" xmlns:xlink="http://www.w3.org/1999/xlink"><clipPath id="g1163a0fab_016.0"><path d="m0 0l960.0 0l0 720.0l-960.0 0l0 -720.0z" clip-rule="nonzero"></path></clipPath><g clip-path="url(#g1163a0fab_016.0)"><path fill="#ffffff" d="m0 0l960.0 0l0 720.0l-960.0 0z" fill-rule="nonzero"></path><path fill="#963334" d="m171.35889 85.49475l137.8924 0l0 82.93176l-137.8924 0z" fill-rule="nonzero"></path><path stroke="#666666" stroke-width="2.0" stroke-linejoin="round" stroke-linecap="butt" d="m171.35889 85.49475l137.8924 0l0 82.93176l-137.8924 0z" fill-rule="nonzero"></path><path fill="#000000" d="m189.59047 127.45282q0 -4.8125 0.546875 -8.0625q0.5625 -3.265625 1.703125 -5.25q1.15625 -2.0 2.875 -2.859375q1.734375 -0.875 4.046875 -0.875q2.34375 0 3.96875 0.8125q1.640625 0.8125 2.640625 2.765625q1.015625 1.9375 1.46875 5.203125q0.46875 3.265625 0.46875 8.109375q0 4.953125 -0.53125 8.3125q-0.53125 3.359375 -1.640625 5.421875q-1.09375 2.0625 -2.828125 2.953125q-1.71875 0.890625 -4.078125 0.890625q-2.296875 0 -3.953125 -0.765625q-1.65625 -0.78125 -2.6875 -2.765625q-1.03125 -2.0 -1.515625 -5.359375q-0.484375 -3.359375 -0.484375 -8.53125zm4.375 0.953125q0 3.359375 0.203125 5.71875q0.21875 2.34375 0.75 3.859375q0.53125 1.515625 1.359375 2.21875q0.84375 0.6875 2.140625 0.6875q1.296875 0 2.1875 -0.71875q0.890625 -0.71875 1.4375 -2.34375q0.5625 -1.640625 0.796875 -4.1875q0.234375 -2.546875 0.234375 -6.25q0 -3.59375 -0.21875 -6.0625q-0.203125 -2.46875 -0.71875 -4.03125q-0.5 -1.5625 -1.34375 -2.234375q-0.828125 -0.671875 -2.125 -0.671875q-1.25 0 -2.140625 0.75q-0.890625 0.734375 -1.46875 2.390625q-0.5625 1.65625 -0.828125 4.328125q-0.265625 2.65625 -0.265625 6.546875zm31.200287 14.78125q-1.390625 0.765625 -3.296875 1.25q-1.890625 0.484375 -3.859375 0.484375q-2.15625 0 -3.546875 -0.484375q-1.390625 -0.484375 -2.21875 -1.484375q-0.8125 -1.015625 -1.125 -2.5q-0.3125 -1.484375 -0.3125 -3.5l0 -15.703125q0 -0.28125 0.0625 -0.453125q0.078125 -0.171875 0.4375 -0.234375q0.359375 -0.078125 1.171875 -0.09375q0.828125 -0.03125 2.359375 -0.03125l0 16.84375q0 2.359375 0.625 3.296875q0.625 0.9375 2.59375 0.9375q0.671875 0 1.5625 -0.171875q0.890625 -0.171875 1.65625 -0.703125l0 -19.390625q0 -0.28125 0.0625 -0.453125q0.078125 -0.171875 0.4375 -0.234375q0.359375 -0.078125 1.15625 -0.09375q0.796875 -0.03125 2.234375 -0.03125l0 22.75zm6.3762817 -19.390625l-3.265625 0q0 -1.109375 0.015625 -1.78125q0.03125 -0.671875 0.109375 -1.03125q0.078125 -0.359375 0.265625 -0.453125q0.1875 -0.09375 0.484375 -0.09375l2.390625 0l0 -7.296875q0 -0.484375 0.171875 -0.765625q0.171875 -0.296875 0.59375 -0.40625q0.4375 -0.125 1.203125 -0.140625q0.765625 -0.03125 1.9687653 -0.03125l0 8.640625l4.890625 0q0 1.15625 -0.03125 1.8125q-0.015625 0.640625 -0.09375 1.0q-0.0625 0.359375 -0.203125 0.453125q-0.140625 0.09375 -0.4375 0.09375l-4.125 0l0 13.96875q0 0.765625 0.015625 1.46875q0.03125 0.6875 0.203125 1.203125q0.171875 0.5 0.5 0.8125q0.34375 0.3125 1.015625 0.3125q0.8125 0 1.4375 -0.171875q0.625 -0.171875 1.34375 -0.546875q0.09375 0.375 0.1875 0.859375q0.09375 0.484375 0.09375 1.046875q0 0.671875 -0.390625 1.09375q-0.375 0.40625 -0.984375 0.640625q-0.59375 0.234375 -1.3125 0.328125q-0.71875 0.109375 -1.4375 0.109375q-1.5312653 0 -2.4531403 -0.5q-0.90625 -0.515625 -1.390625 -1.453125q-0.46875 -0.9375 -0.625 -2.25q-0.140625 -1.328125 -0.140625 -2.953125l0 -13.96875zm12.046173 -1.921875q3.03125 -1.921875 7.015625 -1.921875q1.765625 0 3.203125 0.46875q1.453125 0.453125 2.4843597 1.578125q1.03125 1.125 1.578125 3.078125q0.5625 1.9375 0.5625 4.859375q0 4.859375 -0.65625 7.8125q-0.640625 2.9375 -1.703125 4.53125q-1.0624847 1.578125 -2.3281097 2.109375q-1.265625 0.53125 -2.46875 0.53125q-1.34375 0 -2.3125 -0.421875q-0.953125 -0.40625 -1.484375 -0.921875l0 9.984375q-0.484375 0.1875 -1.015625 0.25q-0.515625 0.078125 -1.0 0.078125q-1.0 0 -1.4375 -0.359375q-0.4375 -0.359375 -0.4375 -1.3125l0 -30.34375zm3.890625 17.953125q0.53125 0.8125 1.203125 1.203125q0.671875 0.375 1.390625 0.375q0.578125 0 1.265625 -0.296875q0.703125 -0.3125 1.296875 -1.46875q0.609375 -1.15625 1.03125 -3.328125q0.4375 -2.1875 0.4375 -5.9375q0 -2.15625 -0.25 -3.5q-0.234375 -1.34375 -0.6875 -2.140625q-0.453125 -0.796875 -1.15625 -1.078125q-0.6875 -0.296875 -1.59375 -0.296875q-1.640625 0 -2.9375 0.921875l0 15.546875zm28.759018 3.359375q-1.390625 0.765625 -3.296875 1.25q-1.890625 0.484375 -3.859375 0.484375q-2.15625 0 -3.546875 -0.484375q-1.390625 -0.484375 -2.21875 -1.484375q-0.8125 -1.015625 -1.125 -2.5q-0.3125 -1.484375 -0.3125 -3.5l0 -15.703125q0 -0.28125 0.0625 -0.453125q0.078125 -0.171875 0.4375 -0.234375q0.359375 -0.078125 1.171875 -0.09375q0.828125 -0.03125 2.359375 -0.03125l0 16.84375q0 2.359375 0.625 3.296875q0.625 0.9375 2.59375 0.9375q0.671875 0 1.5625 -0.171875q0.890625 -0.171875 1.65625 -0.703125l0 -19.390625q0 -0.28125 0.0625 -0.453125q0.078125 -0.171875 0.4375 -0.234375q0.359375 -0.078125 1.15625 -0.09375q0.796875 -0.03125 2.234375 -0.03125l0 22.75zm6.3762817 -19.390625l-3.265625 0q0 -1.109375 0.015625 -1.78125q0.03125 -0.671875 0.109375 -1.03125q0.078125 -0.359375 0.265625 -0.453125q0.1875 -0.09375 0.484375 -0.09375l2.390625 0l0 -7.296875q0 -0.484375 0.171875 -0.765625q0.171875 -0.296875 0.59375 -0.40625q0.4375 -0.125 1.203125 -0.140625q0.765625 -0.03125 1.96875 -0.03125l0 8.640625l4.890625 0q0 1.15625 -0.03125 1.8125q-0.015625 0.640625 -0.09375 1.0q-0.0625 0.359375 -0.203125 0.453125q-0.140625 0.09375 -0.4375 0.09375l-4.125 0l0 13.96875q0 0.765625 0.015625 1.46875q0.03125 0.6875 0.203125 1.203125q0.171875 0.5 0.5 0.8125q0.34375 0.3125 1.015625 0.3125q0.8125 0 1.4375 -0.171875q0.625 -0.171875 1.34375 -0.546875q0.09375 0.375 0.1875 0.859375q0.09375 0.484375 0.09375 1.046875q0 0.671875 -0.390625 1.09375q-0.375 0.40625 -0.984375 0.640625q-0.59375 0.234375 -1.3125 0.328125q-0.71875 0.109375 -1.4375 0.109375q-1.53125 0 -2.453125 -0.5q-0.90625 -0.515625 -1.390625 -1.453125q-0.46875 -0.9375 -0.625 -2.25q-0.140625 -1.328125 -0.140625 -2.953125l0 -13.96875z" fill-rule="nonzero"></path><path fill="#963334" d="m171.35889 195.00131l137.8924 0l0 82.93176l-137.8924 0z" fill-rule="nonzero"></path><path stroke="#666666" stroke-width="2.0" stroke-linejoin="round" stroke-linecap="butt" d="m171.35889 195.00131l137.8924 0l0 82.93176l-137.8924 0z" fill-rule="nonzero"></path><path fill="#963334" d="m171.35889 304.50787l137.8924 0l0 82.93176l-137.8924 0z" fill-rule="nonzero"></path><path stroke="#666666" stroke-width="2.0" stroke-linejoin="round" stroke-linecap="butt" d="m171.35889 304.50787l137.8924 0l0 82.93176l-137.8924 0z" fill-rule="nonzero"></path><path fill="#963334" d="m171.35889 428.04068l137.8924 0l0 82.93176l-137.8924 0z" fill-rule="nonzero"></path><path stroke="#666666" stroke-width="2.0" stroke-linejoin="round" stroke-linecap="butt" d="m171.35889 428.04068l137.8924 0l0 82.93176l-137.8924 0z" fill-rule="nonzero"></path><path fill="#963334" d="m171.35889 551.5735l137.8924 0l0 82.93176l-137.8924 0z" fill-rule="nonzero"></path><path stroke="#666666" stroke-width="2.0" stroke-linejoin="round" stroke-linecap="butt" d="m171.35889 551.5735l137.8924 0l0 82.93176l-137.8924 0z" fill-rule="nonzero"></path><path fill="#000000" fill-opacity="0.0" d="m342.20673 125.67099l218.17322 124.66142" fill-rule="nonzero"></path><path stroke="#666666" stroke-width="2.0" stroke-linejoin="round" stroke-linecap="butt" d="m342.20673 125.67099l207.75415 118.70807" fill-rule="evenodd"></path><path fill="#666666" stroke="#666666" stroke-width="2.0" stroke-linecap="butt" d="m548.32196 247.24733l9.519409 1.634552l-6.241638 -7.3710785z" fill-rule="evenodd"></path><path fill="#000000" fill-opacity="0.0" d="m334.4141 592.7103l230.64566 -170.92911" fill-rule="nonzero"></path><path stroke="#666666" stroke-width="2.0" stroke-linejoin="round" stroke-linecap="butt" d="m334.4141 592.7103l221.00461 -163.78424" fill-rule="evenodd"></path><path fill="#666666" stroke="#666666" stroke-width="2.0" stroke-linecap="butt" d="m557.38556 431.5802l5.3251343 -8.058136l-9.258911 2.7499695z" fill-rule="evenodd"></path><path fill="#000000" fill-opacity="0.0" d="m333.27234 247.64474l236.47247 51.02362" fill-rule="nonzero"></path><path stroke="#666666" stroke-width="2.0" stroke-linejoin="round" stroke-linecap="butt" d="m333.27234 247.64474l224.74237 48.492645" fill-rule="evenodd"></path><path fill="#666666" stroke="#666666" stroke-width="2.0" stroke-linecap="butt" d="m557.318 299.36652l9.568787 -1.3148193l-8.175293 -5.143463z" fill-rule="evenodd"></path><path fill="#000000" fill-opacity="0.0" d="m332.08075 467.9492l236.09448 -86.70865" fill-rule="nonzero"></path><path stroke="#666666" stroke-width="2.0" stroke-linejoin="round" stroke-linecap="butt" d="m332.08075 467.9492l224.83014 -82.571686" fill-rule="evenodd"></path><path fill="#666666" stroke="#666666" stroke-width="2.0" stroke-linecap="butt" d="m558.04974 388.47845l7.3809204 -6.22995l-9.65863 0.028045654z" fill-rule="evenodd"></path><path fill="#000000" fill-opacity="0.0" d="m333.56107 344.0673l237.73227 -0.22045898" fill-rule="nonzero"></path><path stroke="#666666" stroke-width="2.0" stroke-linejoin="round" stroke-linecap="butt" d="m333.56107 344.0673l225.73227 -0.20932007" fill-rule="evenodd"></path><path fill="#666666" stroke="#666666" stroke-width="2.0" stroke-linecap="butt" d="m559.29645 347.1614l9.07312 -3.3118591l-9.079285 -3.295044z" fill-rule="evenodd"></path><path fill="#8b81d2" d="m595.60175 214.0332l193.03937 0l0 223.76312l-32.17389 32.17389l-160.86548 0z" fill-rule="nonzero"></path><path fill="#6f67a7" d="m756.4672 469.9702l6.4348145 -25.739105l25.739075 -6.434784z" fill-rule="nonzero"></path><path fill="#000000" fill-opacity="0.0" d="m756.4672 469.9702l6.4348145 -25.739105l25.739075 -6.434784l-32.17389 32.17389l-160.86548 0l0 -255.93701l193.03937 0l0 223.76312" fill-rule="nonzero"></path><path stroke="#666666" stroke-width="2.0" stroke-linejoin="round" stroke-linecap="butt" d="m756.4672 469.9702l6.4348145 -25.739105l25.739075 -6.434784l-32.17389 32.17389l-160.86548 0l0 -255.93701l193.03937 0l0 223.76312" fill-rule="nonzero"></path><path fill="#000000" d="m659.4774 327.446l-10.171875 0l0 20.734375q0 0.390625 -0.0625 0.625q-0.0625 0.21875 -0.546875 0.3125q-0.484375 0.09375 -1.546875 0.09375q-1.046875 0 -3.03125 0l0 -43.71875q0 -0.375 0.0625 -0.59375q0.0625 -0.234375 0.546875 -0.328125q0.484375 -0.09375 1.53125 -0.125q1.0625 -0.03125 3.046875 -0.03125l0 18.234375l10.171875 0l0 -17.15625q0 -0.375 0.0625 -0.59375q0.0625 -0.234375 0.546875 -0.328125q0.484375 -0.09375 1.53125 -0.125q1.0625 -0.03125 3.046875 -0.03125l0 43.765625q0 0.390625 -0.0625 0.625q-0.0625 0.21875 -0.546875 0.3125q-0.484375 0.09375 -1.546875 0.09375q-1.046875 0 -3.03125 0l0 -21.765625zm22.41034 -18.171875l0 38.90625q0 0.390625 -0.109375 0.625q-0.09375 0.21875 -0.578125 0.3125q-0.46875 0.09375 -1.53125 0.09375q-1.046875 0 -2.96875 0l0 -39.9375l-8.703125 0l0 -3.78125q0 -1.078125 1.078125 -1.078125l21.765625 0l0 3.84375q0 1.015625 -1.09375 1.015625l-7.859375 0zm12.215698 -3.78125q0 -0.765625 0.3125 -0.921875q0.328125 -0.15625 0.78125 -0.15625l3.765625 0l6.09375 19.328125q0.25 0.953125 0.59375 2.109375q0.359375 1.15625 0.640625 2.25q0.296875 1.078125 0.515625 1.84375q0.234375 0.765625 0.296875 0.96875q0 -0.078125 0.1875 -0.875q0.1875 -0.796875 0.46875 -1.84375q0.296875 -1.0625 0.578125 -2.21875q0.296875 -1.15625 0.609375 -2.046875l5.640625 -18.4375q0.125 -0.5 0.3125 -0.78125q0.203125 -0.296875 0.703125 -0.296875l4.234375 0l0 43.765625q0 0.390625 -0.109375 0.625q-0.09375 0.21875 -0.578125 0.3125q-0.46875 0.09375 -1.5625 0.09375q-1.078125 0 -3.0625 0l0.1875 -15.546875q0.0625 -2.3125 0.21875 -5.25q0.171875 -2.953125 0.359375 -5.734375q0.1875 -2.78125 0.34375 -4.953125q0.171875 -2.171875 0.234375 -2.953125q-0.515625 1.796875 -1.15625 4.078125q-0.640625 2.265625 -1.21875 4.34375q-0.578125 2.078125 -1.0625 3.71875q-0.46875 1.625 -0.65625 2.203125l-3.390625 9.71875q-0.140625 0.328125 -0.328125 0.421875q-0.1875 0.09375 -0.390625 0.09375l-2.234375 0l-3.328125 -10.234375q-0.1875 -0.515625 -0.671875 -2.140625q-0.484375 -1.640625 -1.09375 -3.75q-0.59375 -2.109375 -1.234375 -4.40625q-0.640625 -2.3125 -1.15625 -4.171875l0 0.0625q0.3125 3.390625 0.578125 6.78125q0.25 2.890625 0.40625 6.125q0.171875 3.21875 0.234375 5.78125l0.125 14.78125q0 0.390625 -0.125 0.625q-0.125 0.21875 -0.640625 0.3125q-0.515625 0.09375 -1.578125 0.09375q-1.046875 0 -2.84375 0l0 -43.71875zm36.54596 38.859375l11.015625 0l0 3.828125q0 0.640625 -0.296875 0.84375q-0.28125 0.1875 -0.796875 0.1875l-15.171875 0l0 -43.328125q0 -0.578125 0.09375 -0.859375q0.09375 -0.296875 0.609375 -0.421875q0.515625 -0.125 1.5625 -0.15625q1.0625 -0.03125 2.984375 -0.03125l0 39.9375z" fill-rule="nonzero"></path><path fill="#000000" fill-opacity="0.0" d="m365.1811 9.698163l229.63782 0l0 114.83464l-229.63782 0z" fill-rule="nonzero"></path><path fill="#666666" d="m397.69672 58.057537q0 0.640625 -0.15625 1.609375q-0.15625 0.953125 -0.5625 2.0q-0.953125 -0.5625 -2.484375 -1.0q-1.515625 -0.453125 -3.109375 -0.453125q-1.4375 0 -2.84375 0.484375q-1.40625 0.484375 -2.53125 2.125q-1.109375 1.6406288 -1.828125 4.796879q-0.71875 3.15625 -0.71875 8.515625q0 4.25 0.4375 6.96875q0.4375 2.71875 1.3125 4.328125q0.890625 1.59375 2.203125 2.234375q1.328125 0.640625 3.171875 0.640625q1.90625 0 3.59375 -0.59375q1.6875 -0.609375 2.71875 -1.25q0.328125 1.109375 0.484375 1.921875q0.15625 0.796875 0.15625 1.59375q0 1.59375 -2.484375 2.84375q-2.46875 1.234375 -6.46875 1.234375q-2.890625 0 -5.09375 -0.71875q-2.1875 -0.71875 -3.71875 -2.875q-1.515625 -2.15625 -2.3125 -6.078125q-0.796875 -3.921875 -0.796875 -10.25q0 -7.1875 1.3125 -11.46875q1.328125 -4.281254 3.40625 -6.562504q2.078125 -2.28125 4.640625 -2.953125q2.5625 -0.6875 5.03125 -0.6875q2.8125 0 4.71875 1.0q1.921875 1.0 1.921875 2.59375zm3.446228 17.203129q0 -10.953125 3.46875 -15.875004q3.484375 -4.921875 9.8125 -4.921875q3.109375 0 5.46875 0.921875q2.375 0.921875 3.890625 3.28125q1.515625 2.359375 2.265625 6.328129q0.765625 3.953125 0.765625 10.03125q0 11.1875 -3.359375 16.109375q-3.359375 4.921875 -9.75 4.921875q-3.125 0 -5.453125 -0.71875q-2.3125 -0.71875 -3.921875 -2.921875q-1.59375 -2.203125 -2.390625 -6.3125q-0.796875 -4.125 -0.796875 -10.84375zm7.03125 0.15625q0 4.96875 0.359375 7.9375q0.375 2.953125 1.09375 4.546875q0.71875 1.59375 1.796875 2.125q1.078125 0.515625 2.4375 0.515625q1.28125 0 2.359375 -0.640625q1.078125 -0.640625 1.875 -2.390625q0.8125 -1.765625 1.25 -4.71875q0.4375 -2.96875 0.4375 -7.6875q0 -4.796875 -0.359375 -7.71875q-0.359375 -2.921875 -1.046875 -4.515629q-0.671875 -1.609375 -1.71875 -2.171875q-1.03125 -0.5625 -2.484375 -0.5625q-1.359375 0 -2.4375 0.640625q-1.078125 0.640625 -1.875 2.328125q-0.796875 1.6718788 -1.25 4.671879q-0.4375 3.0 -0.4375 7.640625zm40.002472 -11.28125q-0.078125 -2.1562538 -0.796875 -3.0781288q-0.71875 -0.921875 -3.125 -0.921875q-2.796875 0 -5.4375 1.359375l0 32.48438q0 0.484375 -0.125 0.765625q-0.109375 0.28125 -0.75 0.40625q-0.640625 0.109375 -1.96875 0.109375q-1.3125 0 -3.625 0l0 -38.156254q2.625 -1.203125 5.671875 -1.921875q3.046875 -0.71875 6.40625 -0.71875q2.546875 0 4.3125 0.640625q1.765625 0.640625 2.875 1.84375q2.09375 -1.125 4.71875 -1.796875q2.640625 -0.6875 5.125 -0.6875q2.96875 0 4.765625 0.765625q1.796875 0.75 2.71875 2.1875q0.921875 1.4375 1.203125 3.53125q0.28125 2.078125 0.28125 4.796879l0 28.234375q0 0.484375 -0.125 0.765625q-0.125 0.28125 -0.765625 0.40625q-0.640625 0.109375 -1.96875 0.109375q-1.3125 0 -3.625 0l0 -29.59375q0 -2.8906288 -0.765625 -4.171879q-0.75 -1.28125 -3.15625 -1.28125q-1.359375 0 -2.6875 0.328125q-1.3125 0.3125 -2.671875 1.203125l0 32.23438q0 0.484375 -0.078125 0.765625q-0.078125 0.28125 -0.6875 0.40625q-0.59375 0.109375 -1.921875 0.109375q-1.3125 0 -3.796875 0l0 -31.125zm29.289978 -24.640629q0 -1.109375 0.234375 -1.75q0.234375 -0.640625 0.953125 -0.921875q0.734375 -0.28125 2.0 -0.3125q1.28125 -0.046875 3.28125 -0.046875l0 20.796875q1.609375 -1.359375 3.6875 -2.078125q2.078125 -0.71875 4.875 -0.71875q2.40625 0 4.234375 0.84375q1.84375 0.828125 3.046875 2.671875q1.203125 1.84375 1.84375 4.84375q0.640625 3.0000038 0.640625 7.390629q0 8.640625 -1.484375 13.765625q-1.484375 5.125 -3.765625 7.8125q-2.265625 2.671875 -5.0 3.46875q-2.71875 0.796875 -5.1875 0.796875q-6.328125 0 -9.359375 -2.390625l0 -54.17188zm6.46875 49.76563q0.5625 0.40625 1.484375 0.734375q0.921875 0.3125 2.28125 0.3125q1.046875 0 2.3125 -0.640625q1.28125 -0.640625 2.359375 -2.59375q1.09375 -1.96875 1.84375 -5.640625q0.765625 -3.6875 0.765625 -9.765625q0 -6.40625 -1.359375 -8.875004q-1.359375 -2.484375 -4.078125 -2.484375q-3.125 0 -5.609375 2.234375l0 26.718754zm30.71811 4.71875q0 0.484375 -0.125 0.765625q-0.109375 0.28125 -0.75 0.40625q-0.640625 0.109375 -1.9687805 0.109375q-1.3125 0 -3.78125 0l0 -37.04688q0 -1.109375 0.265625 -1.703125q0.28125 -0.609375 1.046875 -0.890625q0.765625 -0.28125 2.03125 -0.3125q1.2812805 -0.046875 3.2812805 -0.046875l0 38.718754zm-6.3125305 -51.437504q0.078125 -2.15625 0.953125 -3.46875q0.890625 -1.328125 2.8125305 -1.328125q1.828125 0 2.546875 1.046875q0.734375 1.03125 0.640625 3.59375q0 2.46875 -0.921875 3.828125q-0.90625 1.359375 -2.7500305 1.359375q-1.59375 0 -2.4375 -1.109375q-0.84375 -1.125 -0.84375 -3.921875zm13.5937195 14.640625q1.203125 -0.484375 2.71875 -1.0q1.53125 -0.515625 3.203125 -0.875q1.6875 -0.359375 3.40625 -0.59375q1.71875 -0.25 3.3125 -0.25q6.328125 0 8.796875 2.4375q2.484375 2.4375 2.484375 8.281254l0 28.796875q0 0.484375 -0.125 0.765625q-0.109375 0.28125 -0.75 0.40625q-0.640625 0.109375 -2.0 0.109375q-1.359375 0 -3.84375 0l0 -28.15625q0 -3.8437538 -0.875 -5.406254q-0.875 -1.5625 -3.921875 -1.5625q-1.28125 0 -2.921875 0.359375q-1.640625 0.359375 -3.0 1.078125l0 32.406254q0 0.484375 -0.125 0.765625q-0.109375 0.28125 -0.75 0.40625q-0.640625 0.109375 -1.921875 0.109375q-1.28125 0 -3.6875 0l0 -38.07813zm43.606873 -2.71875q10.15625 0 10.15625 12.875004q0 2.640625 -0.203125 5.4375q-0.1875 2.796875 -0.671875 4.96875q-2.078125 0.390625 -4.40625 0.640625q-2.3125 0.234375 -4.59375 0.40625q-2.28125 0.15625 -4.28125 0.203125q-2.0 0.03125 -3.4375 0.03125q0.078125 3.1875 0.59375 5.28125q0.515625 2.078125 1.390625 3.28125q0.890625 1.1875 2.25 1.671875q1.359375 0.484375 3.203125 0.484375q2.40625 0 4.71875 -0.671875q2.328125 -0.6875 4.40625 -1.8125q0.3125 0.875 0.421875 2.15625q0.125 1.28125 0.125 2.25q0 0.953125 -0.875 1.75q-0.875 0.796875 -2.40625 1.40625q-1.515625 0.59375 -3.515625 0.90625q-2.0 0.328125 -4.234375 0.328125q-2.796875 0 -5.15625 -0.71875q-2.359375 -0.71875 -4.046875 -2.75q-1.671875 -2.046875 -2.640625 -5.71875q-0.953125 -3.6875 -0.953125 -9.53125q0 -7.515625 1.234375 -12.03125q1.234375 -4.531254 3.1875 -6.921879q1.96875 -2.40625 4.53125 -3.15625q2.5625 -0.765625 5.203125 -0.765625zm-0.71875 5.671875q-1.203125 0 -2.328125 0.609375q-1.109375 0.59375 -2.03125 2.15625q-0.921875 1.5625038 -1.53125 4.171879q-0.59375 2.59375 -0.75 6.671875q1.125 0 2.5625 0q1.4375 0 2.90625 -0.125q1.484375 -0.125 2.890625 -0.28125q1.40625 -0.15625 2.4375 -0.484375q0.234375 -1.109375 0.3125 -2.390625q0.09375 -1.28125 0.09375 -2.40625q-0.078125 -4.312504 -1.046875 -6.109379q-0.953125 -1.8125 -3.515625 -1.8125z" fill-rule="nonzero"></path></g></svg>

