<?xml version="1.0" standalone="yes"?>

<svg version="1.1" viewBox="0.0 0.0 960.0 720.0" fill="none" stroke="none" stroke-linecap="square" stroke-miterlimit="10" xmlns="http://www.w3.org/2000/svg" xmlns:xlink="http://www.w3.org/1999/xlink"><clipPath id="ge18128f5_02.0"><path d="m0 0l960.0 0l0 720.0l-960.0 0l0 -720.0z" clip-rule="nonzero"></path></clipPath><g clip-path="url(#ge18128f5_02.0)"><path fill="#ffffff" d="m0 0l960.0 0l0 720.0l-960.0 0z" fill-rule="nonzero"></path><path fill="#000000" fill-opacity="0.0" d="m299.97375 20.464567l330.2047 0l0 60.409447l-330.2047 0z" fill-rule="nonzero"></path><path fill="#000000" d="m317.03625 27.295889q2.359375 0 4.125 0.71875q1.78125 0.71875 2.953125 2.453125q1.171875 1.7187481 1.75 4.624998q0.578125 2.90625 0.578125 7.265625q0 5.28125 -0.625 8.84375q-0.625 3.546875 -1.828125 5.703125q-1.1875 2.15625 -2.953125 3.078125q-1.75 0.90625 -3.953125 0.90625l-6.0 0l0 -32.6875q0 -0.4375 0.234375 -0.671875q0.25 -0.234375 1.0625 -0.234375l4.65625 0zm4.953125 14.687498q0 -3.3125 -0.296875 -5.46875q-0.28125 -2.171875 -0.890625 -3.421875q-0.59375 -1.2499981 -1.515625 -1.7187481q-0.90625 -0.484375 -2.109375 -0.484375l-2.203125 0l0 26.296873l2.15625 0q0.921875 0 1.796875 -0.5q0.890625 -0.5 1.5625 -2.109375q0.671875 -1.609375 1.078125 -4.609375q0.421875 -3.0 0.421875 -7.984375zm7.004669 -4.03125q-0.09375 -0.390625 -0.09375 -0.609375q0 -0.21875 0.359375 -0.3125q0.359375 -0.09375 1.171875 -0.109375q0.8125 -0.03125 2.34375 -0.03125l2.59375 11.421875q0.296875 1.34375 0.5 2.734375q0.21875 1.390625 0.390625 2.59375q0.171875 1.203125 0.265625 2.078125q0.09375 0.859375 0.140625 1.09375q0 -0.140625 0.09375 -0.984375q0.109375 -0.84375 0.25 -2.03125q0.140625 -1.203125 0.359375 -2.671875q0.21875 -1.46875 0.453125 -2.859375l2.109375 -10.21875q0.046875 -0.4375 0.171875 -0.671875q0.125 -0.25 0.53125 -0.34375q0.40625 -0.09375 1.21875 -0.109375q0.8125 -0.03125 2.296875 -0.03125l-5.890625 25.296875q-0.53125 2.2968788 -1.15625 3.8125038q-0.625 1.515625 -1.421875 2.453125q-0.78125 0.9375 -1.828125 1.3125q-1.03125 0.390625 -2.3125 0.390625q-2.171875 0 -3.03125 -0.53125q-0.859375 -0.53125 -0.859375 -1.34375q0 -0.53125 0.140625 -1.1875q0.140625 -0.640625 0.4375 -1.015625q0.46875 0.328125 1.328125 0.546875q0.875 0.21875 1.6875 0.21875q1.109375 0 2.046875 -1.109375q0.9375 -1.09375 1.453125 -4.078129l-5.75 -23.703125zm18.088013 0.09375q0.71875 -0.296875 1.625 -0.609375q0.921875 -0.3125 1.921875 -0.515625q1.015625 -0.21875 2.046875 -0.359375q1.03125 -0.15625 2.0 -0.15625q3.78125 0 5.265625 1.46875q1.5 1.46875 1.5 4.96875l0 17.28125q0 0.28125 -0.078125 0.453125q-0.0625 0.171875 -0.453125 0.25q-0.390625 0.0625 -1.203125 0.0625q-0.8125 0 -2.296875 0l0 -16.890625q0 -2.3125 -0.53125 -3.25q-0.53125 -0.9375 -2.359375 -0.9375q-0.765625 0 -1.75 0.21875q-0.984375 0.21875 -1.796875 0.65625l0 19.4375q0 0.28125 -0.078125 0.453125q-0.0625 0.171875 -0.453125 0.25q-0.375 0.0625 -1.15625 0.0625q-0.765625 0 -2.203125 0l0 -22.84375zm17.61731 1.0q0 -0.375 0.125 -0.734375q0.125 -0.359375 0.40625 -0.609375q0.625 -0.375 2.59375 -0.828125q1.96875 -0.46875 4.703125 -0.46875q3.125 0 4.53125 1.296875q1.421875 1.296875 1.421875 4.5625l0 2.546875q0 2.0625 0 4.15625q0 2.078125 -0.046875 4.03125q-0.046875 1.9375 -0.09375 3.671875q-0.046875 1.71875 -0.15625 3.0625q-0.953125 0.578125 -2.640625 1.109375q-1.671875 0.53125 -4.03125 0.53125q-1.296875 0 -2.546875 -0.203125q-1.234375 -0.1875 -2.203125 -0.953125q-0.953125 -0.765625 -1.53125 -2.234375q-0.578125 -1.46875 -0.578125 -3.90625q0 -2.5 0.546875 -4.03125q0.5625 -1.546875 1.4375 -2.40625q0.890625 -0.859375 2.046875 -1.140625q1.15625 -0.296875 2.359375 -0.296875q0.8125 0 1.796875 0.125q0.984375 0.109375 1.703125 0.5l0 -3.796875q0 -1.671875 -0.765625 -2.25q-0.765625 -0.578125 -2.21875 -0.578125q-1.8125 0 -3.546875 0.3125q-1.71875 0.3125 -2.78125 0.75q-0.34375 -0.578125 -0.4375 -1.171875q-0.09375 -0.609375 -0.09375 -1.046875zm9.84375 10.515625q-0.484375 -0.234375 -1.109375 -0.328125q-0.625 -0.109375 -1.140625 -0.109375q-0.734375 0 -1.375 0.171875q-0.640625 0.171875 -1.125 0.703125q-0.484375 0.515625 -0.78125 1.453125q-0.28125 0.9375 -0.28125 2.53125q0 1.296875 0.21875 2.109375q0.21875 0.8125 0.625 1.265625q0.40625 0.453125 0.984375 0.609375q0.578125 0.140625 1.296875 0.140625q0.8125 0 1.5 -0.234375q0.703125 -0.25 1.046875 -0.578125q0.046875 -0.578125 0.0625 -1.515625q0.03125 -0.9375 0.046875 -1.984375q0.03125 -1.0625 0.03125 -2.171875q0 -1.109375 0 -2.0625zm17.429535 -7.34375q-0.0625 -1.296875 -0.5 -1.84375q-0.421875 -0.5625 -1.859375 -0.5625q-1.671875 0 -3.265625 0.828125l0 19.484375q0 0.28125 -0.078125 0.453125q-0.0625 0.171875 -0.453125 0.25q-0.375 0.0625 -1.171875 0.0625q-0.796875 0 -2.1875 0l0 -22.890625q1.59375 -0.71875 3.40625 -1.15625q1.828125 -0.4375 3.84375 -0.4375q1.53125 0 2.59375 0.390625q1.0625 0.375 1.734375 1.109375q1.25 -0.671875 2.828125 -1.078125q1.578125 -0.421875 3.078125 -0.421875q1.765625 0 2.84375 0.46875q1.078125 0.453125 1.625 1.3125q0.5625 0.859375 0.734375 2.109375q0.171875 1.25 0.171875 2.875l0 16.953125q0 0.28125 -0.078125 0.453125q-0.078125 0.171875 -0.46875 0.25q-0.375 0.0625 -1.171875 0.0625q-0.78125 0 -2.171875 0l0 -17.765625q0 -1.71875 -0.46875 -2.484375q-0.453125 -0.78125 -1.890625 -0.78125q-0.8125 0 -1.609375 0.203125q-0.78125 0.1875 -1.609375 0.71875l0 19.34375q0 0.28125 -0.046875 0.453125q-0.046875 0.171875 -0.40625 0.25q-0.359375 0.0625 -1.15625 0.0625q-0.78125 0 -2.265625 0l0 -18.671875zm21.492798 17.90625q0 0.28125 -0.078125 0.453125q-0.0625 0.171875 -0.453125 0.25q-0.375 0.0625 -1.171875 0.0625q-0.78125 0 -2.28125 0l0 -22.21875q0 -0.671875 0.171875 -1.03125q0.171875 -0.359375 0.625 -0.53125q0.453125 -0.171875 1.21875 -0.1875q0.765625 -0.03125 1.96875 -0.03125l0 23.234375zm-4.1875 -30.859373q0.046875 -1.296875 0.578125 -2.09375q0.53125 -0.796875 1.671875 -0.796875q1.109375 0 1.53125 0.625q0.4375 0.625 0.390625 2.15625q0 1.5 -0.546875 2.3125q-0.546875 0.8124981 -1.65625 0.8124981q-0.953125 0 -1.46875 -0.6718731q-0.5 -0.671875 -0.5 -2.34375zm20.5094 9.312498q0 0.375 -0.09375 0.953125q-0.09375 0.578125 -0.328125 1.203125q-0.578125 -0.34375 -1.5 -0.609375q-0.90625 -0.265625 -1.875 -0.265625q-0.859375 0 -1.703125 0.296875q-0.828125 0.28125 -1.5 1.265625q-0.671875 0.984375 -1.109375 2.890625q-0.4375 1.890625 -0.4375 5.109375q0 2.546875 0.265625 4.1875q0.265625 1.625 0.796875 2.578125q0.53125 0.953125 1.3125 1.34375q0.796875 0.390625 1.90625 0.390625q1.140625 0 2.15625 -0.359375q1.015625 -0.375 1.625 -0.75q0.203125 0.671875 0.296875 1.15625q0.09375 0.46875 0.09375 0.953125q0 0.953125 -1.484375 1.703125q-1.484375 0.75 -3.890625 0.75q-1.734375 0 -3.0625 -0.4375q-1.3125 -0.4375 -2.21875 -1.71875q-0.90625 -1.296875 -1.390625 -3.65625q-0.484375 -2.359375 -0.484375 -6.140625q0 -4.328125 0.796875 -6.890625q0.796875 -2.5625 2.03125 -3.921875q1.25 -1.375 2.78125 -1.78125q1.546875 -0.421875 3.03125 -0.421875q1.6875 0 2.828125 0.609375q1.15625 0.59375 1.15625 1.5625zm16.513153 -11.281248q2.359375 0 4.125 0.71875q1.78125 0.71875 2.953125 2.453125q1.171875 1.7187481 1.75 4.624998q0.578125 2.90625 0.578125 7.265625q0 5.28125 -0.625 8.84375q-0.625 3.546875 -1.828125 5.703125q-1.1875 2.15625 -2.953125 3.078125q-1.75 0.90625 -3.953125 0.90625l-6.0 0l0 -32.6875q0 -0.4375 0.234375 -0.671875q0.25 -0.234375 1.0625 -0.234375l4.65625 0zm4.953125 14.687498q0 -3.3125 -0.296875 -5.46875q-0.28125 -2.171875 -0.890625 -3.421875q-0.59375 -1.2499981 -1.515625 -1.7187481q-0.90625 -0.484375 -2.109375 -0.484375l-2.203125 0l0 26.296873l2.15625 0q0.921875 0 1.796875 -0.5q0.890625 -0.5 1.5625 -2.109375q0.671875 -1.609375 1.078125 -4.609375q0.421875 -3.0 0.421875 -7.984375zm7.004669 6.90625q0 -6.578125 2.078125 -9.53125q2.09375 -2.953125 5.890625 -2.953125q1.859375 0 3.28125 0.5625q1.421875 0.546875 2.328125 1.96875q0.90625 1.40625 1.359375 3.78125q0.46875 2.375 0.46875 6.03125q0 6.71875 -2.015625 9.671875q-2.015625 2.953125 -5.859375 2.953125q-1.875 0 -3.265625 -0.4375q-1.390625 -0.4375 -2.359375 -1.75q-0.953125 -1.328125 -1.4375 -3.796875q-0.46875 -2.46875 -0.46875 -6.5zm4.21875 0.09375q0 2.984375 0.21875 4.765625q0.21875 1.765625 0.640625 2.734375q0.4375 0.953125 1.078125 1.265625q0.65625 0.3125 1.46875 0.3125q0.765625 0 1.40625 -0.375q0.65625 -0.390625 1.140625 -1.453125q0.484375 -1.0625 0.75 -2.828125q0.265625 -1.78125 0.265625 -4.609375q0 -2.875 -0.21875 -4.625q-0.21875 -1.765625 -0.625 -2.71875q-0.40625 -0.96875 -1.03125 -1.296875q-0.625 -0.34375 -1.5 -0.34375q-0.8125 0 -1.46875 0.390625q-0.640625 0.390625 -1.125 1.40625q-0.46875 1.0 -0.734375 2.796875q-0.265625 1.796875 -0.265625 4.578125zm26.398407 -10.40625q0 0.375 -0.09375 0.953125q-0.09375 0.578125 -0.328125 1.203125q-0.578125 -0.34375 -1.5 -0.609375q-0.90625 -0.265625 -1.875 -0.265625q-0.859375 0 -1.703125 0.296875q-0.828125 0.28125 -1.5 1.265625q-0.671875 0.984375 -1.109375 2.890625q-0.4375 1.890625 -0.4375 5.109375q0 2.546875 0.265625 4.1875q0.265625 1.625 0.796875 2.578125q0.53125 0.953125 1.3125 1.34375q0.796875 0.390625 1.90625 0.390625q1.140625 0 2.15625 -0.359375q1.015625 -0.375 1.625 -0.75q0.203125 0.671875 0.296875 1.15625q0.09375 0.46875 0.09375 0.953125q0 0.953125 -1.484375 1.703125q-1.484375 0.75 -3.890625 0.75q-1.734375 0 -3.0625 -0.4375q-1.3125 -0.4375 -2.21875 -1.71875q-0.90625 -1.296875 -1.390625 -3.65625q-0.484375 -2.359375 -0.484375 -6.140625q0 -4.328125 0.796875 -6.890625q0.796875 -2.5625 2.03125 -3.921875q1.25 -1.375 2.78125 -1.78125q1.546875 -0.421875 3.03125 -0.421875q1.6875 0 2.828125 0.609375q1.15625 0.59375 1.15625 1.5625zm17.383423 21.0625q-1.390625 0.765625 -3.296875 1.25q-1.890625 0.484375 -3.859375 0.484375q-2.15625 0 -3.546875 -0.484375q-1.390625 -0.484375 -2.21875 -1.484375q-0.8125 -1.015625 -1.125 -2.5q-0.3125 -1.484375 -0.3125 -3.5l0 -15.703125q0 -0.28125 0.0625 -0.453125q0.078125 -0.171875 0.4375 -0.234375q0.359375 -0.078125 1.171875 -0.09375q0.828125 -0.03125 2.359375 -0.03125l0 16.84375q0 2.359375 0.625 3.296875q0.625 0.9375 2.59375 0.9375q0.671875 0 1.5625 -0.171875q0.890625 -0.171875 1.65625 -0.703125l0 -19.390625q0 -0.28125 0.0625 -0.453125q0.078125 -0.171875 0.4375 -0.234375q0.359375 -0.078125 1.15625 -0.09375q0.796875 -0.03125 2.234375 -0.03125l0 22.75zm13.970001 -17.421875q-0.0625 -1.296875 -0.5 -1.84375q-0.421875 -0.5625 -1.859375 -0.5625q-1.671875 0 -3.265625 0.828125l0 19.484375q0 0.28125 -0.078125 0.453125q-0.0625 0.171875 -0.453125 0.25q-0.375 0.0625 -1.171875 0.0625q-0.796875 0 -2.1874695 0l0 -22.890625q1.5937195 -0.71875 3.4062195 -1.15625q1.828125 -0.4375 3.84375 -0.4375q1.53125 0 2.59375 0.390625q1.0625 0.375 1.734375 1.109375q1.25 -0.671875 2.828125 -1.078125q1.578125 -0.421875 3.078125 -0.421875q1.765625 0 2.84375 0.46875q1.078125 0.453125 1.625 1.3125q0.5625 0.859375 0.734375 2.109375q0.171875 1.25 0.171875 2.875l0 16.953125q0 0.28125 -0.078125 0.453125q-0.078125 0.171875 -0.46875 0.25q-0.375 0.0625 -1.171875 0.0625q-0.78125 0 -2.171875 0l0 -17.765625q0 -1.71875 -0.46875 -2.484375q-0.453125 -0.78125 -1.890625 -0.78125q-0.8125 0 -1.609375 0.203125q-0.78125 0.1875 -1.609375 0.71875l0 19.34375q0 0.28125 -0.046875 0.453125q-0.046875 0.171875 -0.40625 0.25q-0.359375 0.0625 -1.15625 0.0625q-0.78125 0 -2.265625 0l0 -18.671875zm25.289673 -5.8125q6.09375 0 6.09375 7.734375q0 1.578125 -0.125 3.265625q-0.109375 1.671875 -0.40625 2.96875q-1.25 0.25 -2.640625 0.390625q-1.390625 0.140625 -2.765625 0.234375q-1.359375 0.09375 -2.5625 0.125q-1.1875 0.015625 -2.0625 0.015625q0.046875 1.921875 0.359375 3.171875q0.3125 1.25 0.84375 1.96875q0.53125 0.71875 1.34375 1.015625q0.8125 0.28125 1.921875 0.28125q1.4375 0 2.828125 -0.40625q1.390625 -0.40625 2.640625 -1.078125q0.1875 0.53125 0.265625 1.296875q0.078125 0.765625 0.078125 1.34375q0 0.578125 -0.53125 1.0625q-0.53125 0.46875 -1.453125 0.828125q-0.90625 0.359375 -2.109375 0.546875q-1.1875 0.203125 -2.53125 0.203125q-1.6875 0 -3.109375 -0.4375q-1.40625 -0.4375 -2.421875 -1.65625q-1.0 -1.21875 -1.578125 -3.421875q-0.578125 -2.21875 -0.578125 -5.71875q0 -4.515625 0.734375 -7.21875q0.75 -2.71875 1.921875 -4.15625q1.1875 -1.4375 2.71875 -1.890625q1.546875 -0.46875 3.125 -0.46875zm-0.4375 3.40625q-0.71875 0 -1.390625 0.359375q-0.671875 0.359375 -1.21875 1.296875q-0.546875 0.9375 -0.921875 2.5q-0.359375 1.5625 -0.453125 4.015625q0.671875 0 1.53125 0q0.875 0 1.765625 -0.078125q0.890625 -0.078125 1.71875 -0.171875q0.84375 -0.09375 1.46875 -0.28125q0.140625 -0.671875 0.1875 -1.4375q0.046875 -0.765625 0.046875 -1.4375q-0.046875 -2.59375 -0.625 -3.671875q-0.5625 -1.09375 -2.109375 -1.09375zm9.937439 -1.765625q0.71875 -0.296875 1.625 -0.609375q0.921875 -0.3125 1.921875 -0.515625q1.015625 -0.21875 2.046875 -0.359375q1.03125 -0.15625 2.0 -0.15625q3.78125 0 5.265625 1.46875q1.5 1.46875 1.5 4.96875l0 17.28125q0 0.28125 -0.078125 0.453125q-0.0625 0.171875 -0.453125 0.25q-0.390625 0.0625 -1.203125 0.0625q-0.8125 0 -2.296875 0l0 -16.890625q0 -2.3125 -0.53125 -3.25q-0.53125 -0.9375 -2.359375 -0.9375q-0.765625 0 -1.75 0.21875q-0.984375 0.21875 -1.796875 0.65625l0 19.4375q0 0.28125 -0.078125 0.453125q-0.0625 0.171875 -0.453125 0.25q-0.375 0.0625 -1.15625 0.0625q-0.765625 0 -2.203125 0l0 -22.84375zm20.30481 2.203125l-3.265625 0q0 -1.109375 0.015625 -1.78125q0.03125 -0.671875 0.109375 -1.03125q0.078125 -0.359375 0.265625 -0.453125q0.1875 -0.09375 0.484375 -0.09375l2.390625 0l0 -7.296873q0 -0.484375 0.171875 -0.765625q0.171875 -0.296875 0.59375 -0.40625q0.4375 -0.125 1.203125 -0.140625q0.765625 -0.03125 1.96875 -0.03125l0 8.640623l4.890625 0q0 1.15625 -0.03125 1.8125q-0.015625 0.640625 -0.09375 1.0q-0.0625 0.359375 -0.203125 0.453125q-0.140625 0.09375 -0.4375 0.09375l-4.125 0l0 13.96875q0 0.765625 0.015625 1.46875q0.03125 0.6875 0.203125 1.203125q0.171875 0.5 0.5 0.8125q0.34375 0.3125 1.015625 0.3125q0.8125 0 1.4375 -0.171875q0.625 -0.171875 1.34375 -0.546875q0.09375 0.375 0.1875 0.859375q0.09375 0.484375 0.09375 1.046875q0 0.671875 -0.390625 1.09375q-0.375 0.40625 -0.984375 0.640625q-0.59375 0.234375 -1.3125 0.328125q-0.71875 0.109375 -1.4375 0.109375q-1.53125 0 -2.453125 -0.5q-0.90625 -0.515625 -1.390625 -1.453125q-0.46875 -0.9375 -0.625 -2.25q-0.140625 -1.328125 -0.140625 -2.953125l0 -13.96875zm19.155518 -3.84375q1.875 0 3.046875 0.296875q1.171875 0.28125 1.84375 0.6875q0.671875 0.40625 0.90625 0.890625q0.25 0.484375 0.25 0.8125q0 1.015625 -0.859375 1.96875q-2.0625 -1.25 -4.703125 -1.25q-1.6875 0 -2.75 0.609375q-1.046875 0.59375 -1.046875 1.703125q0 0.671875 0.328125 1.328125q0.34375 0.640625 1.59375 1.640625l4.46875 3.609375q1.53125 1.53125 2.171875 2.859375q0.65625 1.3125 0.65625 3.140625q0 3.21875 -2.125 4.953125q-2.109375 1.71875 -5.796875 1.71875q-2.59375 0 -4.234375 -0.59375q-1.625 -0.609375 -1.625 -1.859375q0 -0.4375 0.140625 -1.0q0.15625 -0.578125 0.53125 -1.25q2.0625 1.1875 4.796875 1.1875q1.828125 0 2.859375 -0.765625q1.03125 -0.765625 1.03125 -2.203125q0 -0.953125 -0.40625 -1.859375q-0.40625 -0.921875 -1.515625 -1.890625l-4.65625 -3.984375q-1.625 -1.34375 -2.1875 -2.609375q-0.546875 -1.265625 -0.546875 -2.46875q0 -2.5 1.890625 -4.078125q1.90625 -1.59375 5.9375 -1.59375z" fill-rule="nonzero"></path><path fill="#cccccc" d="m348.28873 206.14232c96.586914 15.574066 96.586914 -15.574081 193.16348 -15.574081l0 -80.957l-193.16348 0zm15.914276 -96.53108l0 -10.495575l191.84424 0l0 81.46484c-7.2922974 0 -14.595032 0.5642853 -14.595032 0.5642853l0 -71.533554zm14.958618 -10.495575l0 -10.241646l193.50629 0l0 81.210915c-8.310303 0 -16.620667 0.42321777 -16.620667 0.42321777l0 -71.39249z" fill-rule="nonzero"></path><path fill="#000000" fill-opacity="0.0" d="m348.28873 109.61124l193.16348 0l0 80.957c-96.57657 0 -96.57657 31.148148 -193.16348 15.574081zm15.914276 0l0 -10.495575l191.84424 0l0 81.46484c-7.2922974 0 -14.595032 0.5642853 -14.595032 0.5642853m-162.29059 -82.02913l0 -10.241646l193.50629 0l0 81.210915c-8.310303 0 -16.620667 0.42321777 -16.620667 0.42321777" fill-rule="nonzero"></path><path stroke="#666666" stroke-width="2.0" stroke-linejoin="round" stroke-linecap="butt" d="m348.28873 109.61124l193.16348 0l0 80.957c-96.57657 0 -96.57657 31.148148 -193.16348 15.574081zm15.914276 0l0 -10.495575l191.84424 0l0 81.46484c-7.2922974 0 -14.595032 0.5642853 -14.595032 0.5642853m-162.29059 -82.02913l0 -10.241646l193.50629 0l0 81.210915c-8.310303 0 -16.620667 0.42321777 -16.620667 0.42321777" fill-rule="nonzero"></path><path fill="#000000" fill-opacity="0.0" d="m348.28873 206.14232c96.586914 15.574066 96.586914 -15.574081 193.16348 -15.574081l0 -9.423447c0 0 7.3027344 -0.5642853 14.595032 -0.5642853l0 -10.072357c0 0 8.310364 -0.42321777 16.620667 -0.42321777l0 -81.210915l-193.50629 0l0 10.241646l-14.958618 0l0 10.495575l-15.914276 0z" fill-rule="nonzero"></path><path fill="#000000" d="m361.41373 154.7127l-3.265625 0q0 -1.109375 0.015625 -1.78125q0.03125 -0.671875 0.109375 -1.03125q0.078125 -0.359375 0.265625 -0.453125q0.1875 -0.09375 0.484375 -0.09375l2.390625 0l0 -7.296875q0 -0.484375 0.171875 -0.765625q0.171875 -0.296875 0.59375 -0.40625q0.4375 -0.125 1.203125 -0.140625q0.765625 -0.03125 1.96875 -0.03125l0 8.640625l4.890625 0q0 1.15625 -0.03125 1.8125q-0.015625 0.640625 -0.09375 1.0q-0.0625 0.359375 -0.203125 0.453125q-0.140625 0.09375 -0.4375 0.09375l-4.125 0l0 13.96875q0 0.765625 0.015625 1.46875q0.03125 0.6875 0.203125 1.203125q0.171875 0.5 0.5 0.8125q0.34375 0.3125 1.015625 0.3125q0.8125 0 1.4375 -0.171875q0.625 -0.171875 1.34375 -0.546875q0.09375 0.375 0.1875 0.859375q0.09375 0.484375 0.09375 1.046875q0 0.671875 -0.390625 1.09375q-0.375 0.40625 -0.984375 0.640625q-0.59375 0.234375 -1.3125 0.328125q-0.71875 0.109375 -1.4375 0.109375q-1.53125 0 -2.453125 -0.5q-0.90625 -0.515625 -1.390625 -1.453125q-0.46875 -0.9375 -0.625 -2.25q-0.140625 -1.328125 -0.140625 -2.953125l0 -13.96875zm19.827393 -3.84375q6.09375 0 6.09375 7.734375q0 1.578125 -0.125 3.265625q-0.109375 1.671875 -0.40625 2.96875q-1.25 0.25 -2.640625 0.390625q-1.390625 0.140625 -2.765625 0.234375q-1.359375 0.09375 -2.5625 0.125q-1.1875 0.015625 -2.0625 0.015625q0.046875 1.921875 0.359375 3.171875q0.3125 1.25 0.84375 1.96875q0.53125 0.71875 1.34375 1.015625q0.8125 0.28125 1.921875 0.28125q1.4375 0 2.828125 -0.40625q1.390625 -0.40625 2.640625 -1.078125q0.1875 0.53125 0.265625 1.296875q0.078125 0.765625 0.078125 1.34375q0 0.578125 -0.53125 1.0625q-0.53125 0.46875 -1.453125 0.828125q-0.90625 0.359375 -2.109375 0.546875q-1.1875 0.203125 -2.53125 0.203125q-1.6875 0 -3.109375 -0.4375q-1.40625 -0.4375 -2.421875 -1.65625q-1.0 -1.21875 -1.578125 -3.421875q-0.578125 -2.21875 -0.578125 -5.71875q0 -4.515625 0.734375 -7.21875q0.75 -2.71875 1.921875 -4.15625q1.1875 -1.4375 2.71875 -1.890625q1.546875 -0.46875 3.125 -0.46875zm-0.4375 3.40625q-0.71875 0 -1.390625 0.359375q-0.671875 0.359375 -1.21875 1.296875q-0.546875 0.9375 -0.921875 2.5q-0.359375 1.5625 -0.453125 4.015625q0.671875 0 1.53125 0q0.875 0 1.765625 -0.078125q0.890625 -0.078125 1.71875 -0.171875q0.84375 -0.09375 1.46875 -0.28125q0.140625 -0.671875 0.1875 -1.4375q0.046875 -0.765625 0.046875 -1.4375q-0.046875 -2.59375 -0.625 -3.671875q-0.5625 -1.09375 -2.109375 -1.09375zm20.171783 8.3125l6.375 11.859375q0.140625 0.375 0.15625 0.546875q0.03125 0.171875 -0.375 0.265625q-0.40625 0.09375 -1.375 0.09375q-0.953125 0 -2.71875 0l-1.78125 -3.125q-0.4375 -0.765625 -0.875 -1.640625q-0.421875 -0.890625 -0.859375 -1.75q-0.421875 -0.875 -0.78125 -1.65625q-0.359375 -0.796875 -0.609375 -1.375q-0.234375 0.578125 -0.59375 1.375q-0.359375 0.78125 -0.75 1.65625q-0.375 0.859375 -0.8125 1.75q-0.4375 0.875 -0.859375 1.640625l-1.34375 2.359375q-0.140625 0.28125 -0.34375 0.453125q-0.1875 0.171875 -0.671875 0.25q-0.46875 0.0625 -1.296875 0.0625q-0.8125 0 -2.15625 0l6.765625 -12.53125l-5.796875 -10.84375q-0.15625 -0.234375 -0.140625 -0.359375q0.03125 -0.125 0.421875 -0.1875q0.390625 -0.078125 1.265625 -0.078125q0.890625 0 2.53125 0l1.765625 3.265625q0.34375 0.671875 0.71875 1.46875q0.390625 0.78125 0.71875 1.53125q0.34375 0.75 0.625 1.390625q0.296875 0.640625 0.484375 1.078125q0.1875 -0.4375 0.46875 -1.046875q0.296875 -0.625 0.65625 -1.390625q0.359375 -0.78125 0.75 -1.546875q0.390625 -0.765625 0.765625 -1.484375l1.4375 -2.59375q0.140625 -0.234375 0.265625 -0.375q0.125 -0.15625 0.53125 -0.21875q0.40625 -0.078125 1.21875 -0.078125q0.8125 0 2.359375 0l-6.140625 11.234375zm11.414429 -7.875l-3.265625 0q0 -1.109375 0.015625 -1.78125q0.03125 -0.671875 0.109375 -1.03125q0.078125 -0.359375 0.265625 -0.453125q0.1875 -0.09375 0.484375 -0.09375l2.390625 0l0 -7.296875q0 -0.484375 0.171875 -0.765625q0.171875 -0.296875 0.59375 -0.40625q0.4375 -0.125 1.203125 -0.140625q0.765625 -0.03125 1.96875 -0.03125l0 8.640625l4.890625 0q0 1.15625 -0.03125 1.8125q-0.015625 0.640625 -0.09375 1.0q-0.0625 0.359375 -0.203125 0.453125q-0.140625 0.09375 -0.4375 0.09375l-4.125 0l0 13.96875q0 0.765625 0.015625 1.46875q0.03125 0.6875 0.203125 1.203125q0.171875 0.5 0.5 0.8125q0.34375 0.3125 1.015625 0.3125q0.8125 0 1.4375 -0.171875q0.625 -0.171875 1.34375 -0.546875q0.09375 0.375 0.1875 0.859375q0.09375 0.484375 0.09375 1.046875q0 0.671875 -0.390625 1.09375q-0.375 0.40625 -0.984375 0.640625q-0.59375 0.234375 -1.3125 0.328125q-0.71875 0.109375 -1.4375 0.109375q-1.53125 0 -2.453125 -0.5q-0.90625 -0.515625 -1.390625 -1.453125q-0.46875 -0.9375 -0.625 -2.25q-0.140625 -1.328125 -0.140625 -2.953125l0 -13.96875z" fill-rule="nonzero"></path><path fill="#000000" d="m467.3981 153.04083q0 0.375 -0.09375 0.953125q-0.09375 0.578125 -0.328125 1.203125q-0.578125 -0.34375 -1.5 -0.609375q-0.90625 -0.265625 -1.875 -0.265625q-0.859375 0 -1.703125 0.296875q-0.828125 0.28125 -1.5 1.265625q-0.671875 0.984375 -1.109375 2.890625q-0.4375 1.890625 -0.4375 5.109375q0 2.546875 0.265625 4.1875q0.265625 1.625 0.796875 2.578125q0.53125 0.953125 1.3125 1.34375q0.796875 0.390625 1.90625 0.390625q1.140625 0 2.15625 -0.359375q1.015625 -0.375 1.625 -0.75q0.203125 0.671875 0.296875 1.15625q0.09375 0.46875 0.09375 0.953125q0 0.953125 -1.484375 1.703125q-1.484375 0.75 -3.890625 0.75q-1.734375 0 -3.0625 -0.4375q-1.3125 -0.4375 -2.21875 -1.71875q-0.90625 -1.296875 -1.390625 -3.65625q-0.484375 -2.359375 -0.484375 -6.140625q0 -4.328125 0.796875 -6.890625q0.796875 -2.5625 2.03125 -3.921875q1.25 -1.375 2.78125 -1.78125q1.546875 -0.421875 3.03125 -0.421875q1.6875 0 2.828125 0.609375q1.15625 0.59375 1.15625 1.5625zm2.0708923 10.3125q0 -6.578125 2.078125 -9.53125q2.09375 -2.953125 5.890625 -2.953125q1.859375 0 3.28125 0.5625q1.421875 0.546875 2.328125 1.96875q0.90625 1.40625 1.359375 3.78125q0.46875 2.375 0.46875 6.03125q0 6.71875 -2.015625 9.671875q-2.015625 2.953125 -5.859375 2.953125q-1.875 0 -3.265625 -0.4375q-1.390625 -0.4375 -2.359375 -1.75q-0.953125 -1.328125 -1.4375 -3.796875q-0.46875 -2.46875 -0.46875 -6.5zm4.21875 0.09375q0 2.984375 0.21875 4.765625q0.21875 1.765625 0.640625 2.734375q0.4375 0.953125 1.078125 1.265625q0.65625 0.3125 1.46875 0.3125q0.765625 0 1.40625 -0.375q0.65625 -0.390625 1.140625 -1.453125q0.484375 -1.0625 0.75 -2.828125q0.265625 -1.78125 0.265625 -4.609375q0 -2.875 -0.21875 -4.625q-0.21875 -1.765625 -0.625 -2.71875q-0.40625 -0.96875 -1.03125 -1.296875q-0.625 -0.34375 -1.5 -0.34375q-0.8125 0 -1.46875 0.390625q-0.640625 0.390625 -1.125 1.40625q-0.46875 1.0 -0.734375 2.796875q-0.265625 1.796875 -0.265625 4.578125zm24.632782 -8.546875q-0.484375 -0.375 -0.96875 -0.5q-0.484375 -0.125 -1.25 -0.125q-0.8125 0 -1.5625 0.390625q-0.734375 0.390625 -1.34375 1.421875q-0.59375 1.03125 -0.953125 2.90625q-0.359375 1.859375 -0.359375 4.796875q0 2.6875 0.234375 4.375q0.25 1.671875 0.71875 2.609375q0.484375 0.9375 1.125 1.25q0.65625 0.296875 1.515625 0.296875q0.8125 0 1.53125 -0.15625q0.734375 -0.171875 1.3125 -0.5625l0 -16.703125zm0 -13.046875q0 -0.671875 0.15625 -1.03125q0.171875 -0.359375 0.59375 -0.53125q0.4375 -0.171875 1.1875 -0.1875q0.75 -0.03125 1.9375 -0.03125l0 34.328125q-1.1875 0.5625 -2.90625 1.0q-1.703125 0.4375 -3.953125 0.4375q-1.578125 0 -3.0 -0.359375q-1.421875 -0.359375 -2.5 -1.5625q-1.078125 -1.203125 -1.703125 -3.5q-0.625 -2.3125 -0.625 -6.203125q0 -3.546875 0.578125 -6.09375q0.578125 -2.546875 1.578125 -4.140625q1.015625 -1.609375 2.359375 -2.359375q1.34375 -0.75 2.875 -0.75q2.171875 0 3.421875 0.96875l0 -9.984375zm16.16867 9.015625q6.09375 0 6.09375 7.734375q0 1.578125 -0.125 3.265625q-0.109375 1.671875 -0.40625 2.96875q-1.25 0.25 -2.640625 0.390625q-1.390625 0.140625 -2.765625 0.234375q-1.359375 0.09375 -2.5625 0.125q-1.1875 0.015625 -2.0625 0.015625q0.046875 1.921875 0.359375 3.171875q0.3125 1.25 0.84375 1.96875q0.53125 0.71875 1.34375 1.015625q0.8125 0.28125 1.921875 0.28125q1.4375 0 2.828125 -0.40625q1.390625 -0.40625 2.640625 -1.078125q0.1875 0.53125 0.265625 1.296875q0.078125 0.765625 0.078125 1.34375q0 0.578125 -0.53125 1.0625q-0.53125 0.46875 -1.453125 0.828125q-0.90625 0.359375 -2.109375 0.546875q-1.1875 0.203125 -2.53125 0.203125q-1.6875 0 -3.109375 -0.4375q-1.40625 -0.4375 -2.421875 -1.65625q-1.0 -1.21875 -1.578125 -3.421875q-0.578125 -2.21875 -0.578125 -5.71875q0 -4.515625 0.734375 -7.21875q0.75 -2.71875 1.921875 -4.15625q1.1875 -1.4375 2.71875 -1.890625q1.546875 -0.46875 3.125 -0.46875zm-0.4375 3.40625q-0.71875 0 -1.390625 0.359375q-0.671875 0.359375 -1.21875 1.296875q-0.546875 0.9375 -0.921875 2.5q-0.359375 1.5625 -0.453125 4.015625q0.671875 0 1.53125 0q0.875 0 1.765625 -0.078125q0.890625 -0.078125 1.71875 -0.171875q0.84375 -0.09375 1.46875 -0.28125q0.140625 -0.671875 0.1875 -1.4375q0.046875 -0.765625 0.046875 -1.4375q-0.046875 -2.59375 -0.625 -3.671875q-0.5625 -1.09375 -2.109375 -1.09375z" fill-rule="nonzero"></path><path fill="#000000" fill-opacity="0.0" d="m442.49606 112.585304l0 93.57481" fill-rule="nonzero"></path><path stroke="#666666" stroke-width="2.0" stroke-linejoin="round" stroke-linecap="butt" d="m442.49606 112.585304l0 93.57481" fill-rule="nonzero"></path><path fill="#000000" fill-opacity="0.0" d="m441.60367 221.28609l0 348.3465" fill-rule="nonzero"></path><path stroke="#666666" stroke-width="2.0" stroke-linejoin="round" stroke-linecap="butt" d="m441.60367 221.28609l0 336.3465" fill-rule="evenodd"></path><path fill="#666666" stroke="#666666" stroke-width="2.0" stroke-linecap="butt" d="m438.3002 557.63257l3.3034668 9.076172l3.3034668 -9.076172z" fill-rule="evenodd"></path><path fill="#cccccc" d="m381.57162 597.6588l130.61417 0l0 56.40393l-11.281067 11.281067l-119.3331 0z" fill-rule="nonzero"></path><path fill="#a3a3a3" d="m500.90472 665.3438l2.2562256 -9.024841l9.024841 -2.2562256z" fill-rule="nonzero"></path><path fill="#000000" fill-opacity="0.0" d="m500.90472 665.3438l2.2562256 -9.024841l9.024841 -2.2562256l-11.281067 11.281067l-119.3331 0l0 -67.685l130.61417 0l0 56.40393" fill-rule="nonzero"></path><path stroke="#b7b7b7" stroke-width="2.0" stroke-linejoin="round" stroke-linecap="butt" d="m500.90472 665.3438l2.2562256 -9.024841l9.024841 -2.2562256l-11.281067 11.281067l-119.3331 0l0 -67.685l130.61417 0l0 56.40393" fill-rule="nonzero"></path><path fill="#b7b7b7" d="m392.00912 626.35297q0 -4.8125 0.546875 -8.0625q0.5625 -3.265625 1.703125 -5.25q1.15625 -2.0 2.875 -2.859375q1.734375 -0.875 4.046875 -0.875q2.34375 0 3.96875 0.8125q1.640625 0.8125 2.640625 2.765625q1.015625 1.9375 1.46875 5.203125q0.46875 3.265625 0.46875 8.109375q0 4.953125 -0.53125 8.3125q-0.53125 3.359375 -1.640625 5.421875q-1.09375 2.0625 -2.828125 2.953125q-1.71875 0.890625 -4.078125 0.890625q-2.296875 0 -3.953125 -0.765625q-1.65625 -0.78125 -2.6875 -2.765625q-1.03125 -2.0 -1.515625 -5.359375q-0.484375 -3.359375 -0.484375 -8.53125zm4.375 0.953125q0 3.359375 0.203125 5.71875q0.21875 2.34375 0.75 3.859375q0.53125 1.515625 1.359375 2.21875q0.84375 0.6875 2.140625 0.6875q1.296875 0 2.1875 -0.71875q0.890625 -0.71875 1.4375 -2.34375q0.5625 -1.640625 0.796875 -4.1875q0.234375 -2.546875 0.234375 -6.25q0 -3.59375 -0.21875 -6.0625q-0.203125 -2.46875 -0.71875 -4.03125q-0.5 -1.5625 -1.34375 -2.234375q-0.828125 -0.671875 -2.125 -0.671875q-1.25 0 -2.140625 0.75q-0.890625 0.734375 -1.46875 2.390625q-0.5625 1.65625 -0.828125 4.328125q-0.265625 2.65625 -0.265625 6.546875zm31.200287 14.78125q-1.390625 0.765625 -3.296875 1.25q-1.890625 0.484375 -3.859375 0.484375q-2.15625 0 -3.546875 -0.484375q-1.390625 -0.484375 -2.21875 -1.484375q-0.8125 -1.015625 -1.125 -2.5q-0.3125 -1.484375 -0.3125 -3.5l0 -15.703125q0 -0.28125 0.0625 -0.453125q0.078125 -0.171875 0.4375 -0.234375q0.359375 -0.078125 1.171875 -0.09375q0.828125 -0.03125 2.359375 -0.03125l0 16.84375q0 2.359375 0.625 3.296875q0.625 0.9375 2.59375 0.9375q0.671875 0 1.5625 -0.171875q0.890625 -0.171875 1.65625 -0.703125l0 -19.390625q0 -0.28125 0.0625 -0.453125q0.078125 -0.171875 0.4375 -0.234375q0.359375 -0.078125 1.15625 -0.09375q0.796875 -0.03125 2.234375 -0.03125l0 22.75zm6.3762817 -19.390625l-3.265625 0q0 -1.109375 0.015625 -1.78125q0.03125 -0.671875 0.109375 -1.03125q0.078125 -0.359375 0.265625 -0.453125q0.1875 -0.09375 0.484375 -0.09375l2.390625 0l0 -7.296875q0 -0.484375 0.171875 -0.765625q0.171875 -0.296875 0.59375 -0.40625q0.4375 -0.125 1.203125 -0.140625q0.765625 -0.03125 1.96875 -0.03125l0 8.640625l4.890625 0q0 1.15625 -0.03125 1.8125q-0.015625 0.640625 -0.09375 1.0q-0.0625 0.359375 -0.203125 0.453125q-0.140625 0.09375 -0.4375 0.09375l-4.125 0l0 13.96875q0 0.765625 0.015625 1.46875q0.03125 0.6875 0.203125 1.203125q0.171875 0.5 0.5 0.8125q0.34375 0.3125 1.015625 0.3125q0.8125 0 1.4375 -0.171875q0.625 -0.171875 1.34375 -0.546875q0.09375 0.375 0.1875 0.859375q0.09375 0.484375 0.09375 1.046875q0 0.671875 -0.390625 1.09375q-0.375 0.40625 -0.984375 0.640625q-0.59375 0.234375 -1.3125 0.328125q-0.71875 0.109375 -1.4375 0.109375q-1.53125 0 -2.453125 -0.5q-0.90625 -0.515625 -1.390625 -1.453125q-0.46875 -0.9375 -0.625 -2.25q-0.140625 -1.328125 -0.140625 -2.953125l0 -13.96875zm12.046143 -1.921875q3.03125 -1.921875 7.015625 -1.921875q1.765625 0 3.203125 0.46875q1.453125 0.453125 2.484375 1.578125q1.03125 1.125 1.578125 3.078125q0.5625 1.9375 0.5625 4.859375q0 4.859375 -0.65625 7.8125q-0.640625 2.9375 -1.703125 4.53125q-1.0625 1.578125 -2.328125 2.109375q-1.265625 0.53125 -2.46875 0.53125q-1.34375 0 -2.3125 -0.421875q-0.953125 -0.40625 -1.484375 -0.921875l0 9.984375q-0.484375 0.1875 -1.015625 0.25q-0.515625 0.078125 -1.0 0.078125q-1.0 0 -1.4375 -0.359375q-0.4375 -0.359375 -0.4375 -1.3125l0 -30.34375zm3.890625 17.953125q0.53125 0.8125 1.203125 1.203125q0.671875 0.375 1.390625 0.375q0.578125 0 1.265625 -0.296875q0.703125 -0.3125 1.296875 -1.46875q0.609375 -1.15625 1.03125 -3.328125q0.4375 -2.1875 0.4375 -5.9375q0 -2.15625 -0.25 -3.5q-0.234375 -1.34375 -0.6875 -2.140625q-0.453125 -0.796875 -1.15625 -1.078125q-0.6875 -0.296875 -1.59375 -0.296875q-1.640625 0 -2.9375 0.921875l0 15.546875zm28.759033 3.359375q-1.390625 0.765625 -3.296875 1.25q-1.890625 0.484375 -3.859375 0.484375q-2.15625 0 -3.546875 -0.484375q-1.390625 -0.484375 -2.21875 -1.484375q-0.8125 -1.015625 -1.125 -2.5q-0.3125 -1.484375 -0.3125 -3.5l0 -15.703125q0 -0.28125 0.0625 -0.453125q0.078125 -0.171875 0.4375 -0.234375q0.359375 -0.078125 1.171875 -0.09375q0.828125 -0.03125 2.359375 -0.03125l0 16.84375q0 2.359375 0.625 3.296875q0.625 0.9375 2.59375 0.9375q0.671875 0 1.5625 -0.171875q0.890625 -0.171875 1.65625 -0.703125l0 -19.390625q0 -0.28125 0.0625 -0.453125q0.078125 -0.171875 0.4375 -0.234375q0.359375 -0.078125 1.15625 -0.09375q0.796875 -0.03125 2.234375 -0.03125l0 22.75zm6.3762817 -19.390625l-3.265625 0q0 -1.109375 0.015625 -1.78125q0.03125 -0.671875 0.109375 -1.03125q0.078125 -0.359375 0.265625 -0.453125q0.1875 -0.09375 0.484375 -0.09375l2.390625 0l0 -7.296875q0 -0.484375 0.171875 -0.765625q0.171875 -0.296875 0.59375 -0.40625q0.4375 -0.125 1.203125 -0.140625q0.765625 -0.03125 1.96875 -0.03125l0 8.640625l4.890625 0q0 1.15625 -0.03125 1.8125q-0.015625 0.640625 -0.09375 1.0q-0.0625 0.359375 -0.203125 0.453125q-0.140625 0.09375 -0.4375 0.09375l-4.125 0l0 13.96875q0 0.765625 0.015625 1.46875q0.03125 0.6875 0.203125 1.203125q0.171875 0.5 0.5 0.8125q0.34375 0.3125 1.015625 0.3125q0.8125 0 1.4375 -0.171875q0.625 -0.171875 1.34375 -0.546875q0.09375 0.375 0.1875 0.859375q0.09375 0.484375 0.09375 1.046875q0 0.671875 -0.390625 1.09375q-0.375 0.40625 -0.984375 0.640625q-0.59375 0.234375 -1.3125 0.328125q-0.71875 0.109375 -1.4375 0.109375q-1.53125 0 -2.453125 -0.5q-0.90625 -0.515625 -1.390625 -1.453125q-0.46875 -0.9375 -0.625 -2.25q-0.140625 -1.328125 -0.140625 -2.953125l0 -13.96875z" fill-rule="nonzero"></path></g></svg>

