<?xml version="1.0" standalone="yes"?>

<svg version="1.1" viewBox="0.0 0.0 960.0 720.0" fill="none" stroke="none" stroke-linecap="square" stroke-miterlimit="10" xmlns="http://www.w3.org/2000/svg" xmlns:xlink="http://www.w3.org/1999/xlink"><clipPath id="g1163a0fab_066.0"><path d="m0 0l960.0 0l0 720.0l-960.0 0l0 -720.0z" clip-rule="nonzero"></path></clipPath><g clip-path="url(#g1163a0fab_066.0)"><path fill="#ffffff" d="m0 0l960.0 0l0 720.0l-960.0 0z" fill-rule="nonzero"></path><path fill="#d89f39" d="m248.91661 221.67233l193.03938 0l0 223.76312l-32.17389 32.17389l-160.8655 0z" fill-rule="nonzero"></path><path fill="#ac7f2d" d="m409.7821 477.60934l6.434784 -25.739105l25.739105 -6.434784z" fill-rule="nonzero"></path><path fill="#000000" fill-opacity="0.0" d="m409.7821 477.60934l6.434784 -25.739105l25.739105 -6.434784l-32.17389 32.17389l-160.8655 0l0 -255.93701l193.03938 0l0 223.76312" fill-rule="nonzero"></path><path stroke="#666666" stroke-width="2.0" stroke-linejoin="round" stroke-linecap="butt" d="m409.7821 477.60934l6.434784 -25.739105l25.739105 -6.434784l-32.17389 32.17389l-160.8655 0l0 -255.93701l193.03938 0l0 223.76312" fill-rule="nonzero"></path><path fill="#000000" d="m320.18634 313.13202q0 -0.765625 0.3125 -0.921875q0.328125 -0.15625 0.78125 -0.15625l3.765625 0l6.09375 19.328125q0.25 0.953125 0.59375 2.109375q0.359375 1.15625 0.640625 2.25q0.296875 1.078125 0.515625 1.84375q0.234375 0.765625 0.296875 0.96875q0 -0.078125 0.1875 -0.875q0.1875 -0.796875 0.46875 -1.84375q0.296875 -1.0625 0.578125 -2.21875q0.296875 -1.15625 0.609375 -2.046875l5.640625 -18.4375q0.125 -0.5 0.3125 -0.78125q0.203125 -0.296875 0.703125 -0.296875l4.234375 0l0 43.765625q0 0.390625 -0.109375 0.625q-0.09375 0.21875 -0.578125 0.3125q-0.46875 0.09375 -1.5625 0.09375q-1.078125 0 -3.0625 0l0.1875 -15.546875q0.0625 -2.3125 0.21875 -5.25q0.171875 -2.953125 0.359375 -5.734375q0.1875 -2.78125 0.34375 -4.953125q0.171875 -2.171875 0.234375 -2.953125q-0.515625 1.796875 -1.15625 4.078125q-0.640625 2.265625 -1.21875 4.34375q-0.578125 2.078125 -1.0625 3.71875q-0.46875 1.625 -0.65625 2.203125l-3.390625 9.71875q-0.140625 0.328125 -0.328125 0.421875q-0.1875 0.09375 -0.390625 0.09375l-2.234375 0l-3.328125 -10.234375q-0.1875 -0.515625 -0.671875 -2.140625q-0.484375 -1.640625 -1.09375 -3.75q-0.59375 -2.109375 -1.234375 -4.40625q-0.640625 -2.3125 -1.15625 -4.171875l0 0.0625q0.3125 3.390625 0.578125 6.78125q0.25 2.890625 0.40625 6.125q0.171875 3.21875 0.234375 5.78125l0.125 14.78125q0 0.390625 -0.125 0.625q-0.125 0.21875 -0.640625 0.3125q-0.515625 0.09375 -1.578125 0.09375q-1.046875 0 -2.84375 0l0 -43.71875zm44.999084 16.453125q-0.640625 -0.515625 -1.28125 -0.671875q-0.640625 -0.15625 -1.671875 -0.15625q-1.078125 0 -2.078125 0.515625q-0.984375 0.5 -1.796875 1.890625q-0.796875 1.375 -1.28125 3.875q-0.46875 2.484375 -0.46875 6.390625q0 3.578125 0.3125 5.828125q0.328125 2.234375 0.96875 3.484375q0.640625 1.25 1.5 1.671875q0.859375 0.40625 2.015625 0.40625q1.09375 0 2.046875 -0.21875q0.96875 -0.234375 1.734375 -0.734375l0 -22.28125zm0 -17.40625q0 -0.890625 0.21875 -1.375q0.21875 -0.484375 0.796875 -0.703125q0.578125 -0.21875 1.5625 -0.25q1.0 -0.046875 2.59375 -0.046875l0 45.765625q-1.59375 0.765625 -3.875 1.34375q-2.265625 0.578125 -5.265625 0.578125q-2.109375 0 -4.0 -0.484375q-1.890625 -0.46875 -3.328125 -2.0625q-1.4375 -1.609375 -2.28125 -4.671875q-0.828125 -3.078125 -0.828125 -8.265625q0 -4.734375 0.765625 -8.125q0.765625 -3.40625 2.109375 -5.546875q1.34375 -2.140625 3.140625 -3.125q1.796875 -1.0 3.84375 -1.0q2.875 0 4.546875 1.28125l0 -13.3125z" fill-rule="nonzero"></path><path fill="#000000" fill-opacity="0.0" d="m455.83133 261.2235l96.88187 -90.92914" fill-rule="nonzero"></path><path stroke="#666666" stroke-width="2.0" stroke-linejoin="round" stroke-linecap="butt" d="m455.83133 261.2235l88.13205 -82.716934" fill-rule="evenodd"></path><path fill="#666666" stroke="#666666" stroke-width="2.0" stroke-linecap="butt" d="m546.2241 180.91531l4.3571777 -8.620026l-8.878662 3.8025665z" fill-rule="evenodd"></path><path fill="#000000" fill-opacity="0.0" d="m463.28278 308.9269l84.97638 -29.826752" fill-rule="nonzero"></path><path stroke="#666666" stroke-width="2.0" stroke-linejoin="round" stroke-linecap="butt" d="m463.28278 308.9269l73.653625 -25.852448" fill-rule="evenodd"></path><path fill="#666666" stroke="#666666" stroke-width="2.0" stroke-linecap="butt" d="m538.03046 286.19147l7.4699097 -6.122986l-9.658081 -0.11105347z" fill-rule="evenodd"></path><path fill="#000000" fill-opacity="0.0" d="m464.7736 349.17627l87.93698 -1.4803162" fill-rule="nonzero"></path><path stroke="#666666" stroke-width="2.0" stroke-linejoin="round" stroke-linecap="butt" d="m464.7736 349.17627l75.93869 -1.2783508" fill-rule="evenodd"></path><path fill="#666666" stroke="#666666" stroke-width="2.0" stroke-linecap="butt" d="m540.7679 351.20093l9.019287 -3.45578l-9.130493 -3.1502075z" fill-rule="evenodd"></path><path fill="#000000" fill-opacity="0.0" d="m464.7736 384.95053l76.03146 37.259857" fill-rule="nonzero"></path><path stroke="#666666" stroke-width="2.0" stroke-linejoin="round" stroke-linecap="butt" d="m464.7736 384.95053l65.25583 31.979187" fill-rule="evenodd"></path><path fill="#666666" stroke="#666666" stroke-width="2.0" stroke-linecap="butt" d="m528.57574 419.89612l9.603821 1.0276184l-6.696411 -6.960449z" fill-rule="evenodd"></path><path fill="#000000" fill-opacity="0.0" d="m464.01767 422.2104l89.44882 107.33856" fill-rule="nonzero"></path><path stroke="#666666" stroke-width="2.0" stroke-linejoin="round" stroke-linecap="butt" d="m464.01767 422.2104l81.76663 98.119934" fill-rule="evenodd"></path><path fill="#666666" stroke="#666666" stroke-width="2.0" stroke-linecap="butt" d="m543.24646 522.4451l8.348267 4.857727l-3.272644 -9.087341z" fill-rule="evenodd"></path><path fill="#8bab42" d="m602.267 127.063416l108.816345 0l0 62.163696c-54.408142 0 -54.408142 23.685516 -108.816345 10.227844z" fill-rule="nonzero"></path><path stroke="#666666" stroke-width="2.0" stroke-linejoin="round" stroke-linecap="butt" d="m602.267 127.063416l108.816345 0l0 62.163696c-54.408142 0 -54.408142 23.685516 -108.816345 10.227844z" fill-rule="nonzero"></path><path fill="#000000" d="m620.767 141.5437q3.453125 0 4.875 0.703125q1.421875 0.6875 1.421875 1.6875q0 0.53125 -0.21875 1.140625q-0.21875 0.59375 -0.75 1.125q-0.53125 -0.390625 -1.78125 -0.796875q-1.234375 -0.40625 -2.921875 -0.40625q-2.15625 0 -3.40625 0.890625q-1.25 0.890625 -1.25 2.421875q0 1.34375 0.546875 2.40625q0.5625 1.046875 1.671875 2.34375l5.171875 5.90625q0.921875 1.109375 1.546875 2.09375q0.625 0.984375 1.0 1.96875q0.390625 0.984375 0.53125 1.96875q0.140625 0.984375 0.140625 2.078125q0 1.828125 -0.4375 3.46875q-0.421875 1.625 -1.40625 2.875q-0.984375 1.25 -2.640625 1.96875q-1.65625 0.71875 -4.109375 0.71875q-3.265625 0 -4.78125 -0.9375q-1.5 -0.9375 -1.5 -1.953125q0 -0.5625 0.234375 -1.328125q0.25 -0.78125 0.765625 -1.453125q0.765625 0.671875 1.984375 1.1875q1.234375 0.5 2.96875 0.5q2.59375 0 3.640625 -1.34375q1.0625 -1.34375 1.0625 -3.5625q0 -1.625 -0.609375 -3.015625q-0.59375 -1.390625 -2.171875 -3.21875l-4.859375 -5.609375q-1.625 -2.015625 -2.296875 -3.625q-0.671875 -1.609375 -0.671875 -3.296875q0 -3.015625 2.078125 -4.953125q2.09375 -1.953125 6.171875 -1.953125zm13.777771 33.3125q0 0.28125 -0.078125 0.453125q-0.0625 0.171875 -0.421875 0.25q-0.359375 0.0625 -1.15625 0.0625q-0.796875 0 -2.234375 0l0 -33.5q0 -0.671875 0.171875 -1.03125q0.171875 -0.359375 0.59375 -0.53125q0.4375 -0.171875 1.203125 -0.1875q0.765625 -0.03125 1.921875 -0.03125l0 34.515625zm8.397766 0q0 0.28125 -0.078125 0.453125q-0.0625 0.171875 -0.453125 0.25q-0.375 0.0625 -1.171875 0.0625q-0.78125 0 -2.28125 0l0 -22.21875q0 -0.671875 0.171875 -1.03125q0.171875 -0.359375 0.625 -0.53125q0.453125 -0.171875 1.21875 -0.1875q0.765625 -0.03125 1.96875 -0.03125l0 23.234375zm-4.1875 -30.859375q0.046875 -1.296875 0.578125 -2.09375q0.53125 -0.796875 1.671875 -0.796875q1.109375 0 1.53125 0.625q0.4375 0.625 0.390625 2.15625q0 1.5 -0.546875 2.3125q-0.546875 0.8125 -1.65625 0.8125q-0.953125 0 -1.46875 -0.671875q-0.5 -0.671875 -0.5 -2.34375zm18.743774 11.171875q-0.484375 -0.375 -0.96875 -0.5q-0.484375 -0.125 -1.25 -0.125q-0.8125 0 -1.5625 0.390625q-0.734375 0.390625 -1.34375 1.421875q-0.59375 1.03125 -0.953125 2.90625q-0.359375 1.859375 -0.359375 4.796875q0 2.6875 0.234375 4.375q0.25 1.671875 0.71875 2.609375q0.484375 0.9375 1.125 1.25q0.65625 0.296875 1.515625 0.296875q0.8125 0 1.53125 -0.15625q0.734375 -0.171875 1.3125 -0.5625l0 -16.703125zm0 -13.046875q0 -0.671875 0.15625 -1.03125q0.171875 -0.359375 0.59375 -0.53125q0.4375 -0.171875 1.1875 -0.1875q0.75 -0.03125 1.9375 -0.03125l0 34.328125q-1.1875 0.5625 -2.90625 1.0q-1.703125 0.4375 -3.953125 0.4375q-1.578125 0 -3.0 -0.359375q-1.421875 -0.359375 -2.5 -1.5625q-1.078125 -1.203125 -1.703125 -3.5q-0.625 -2.3125 -0.625 -6.203125q0 -3.546875 0.578125 -6.09375q0.578125 -2.546875 1.578125 -4.140625q1.015625 -1.609375 2.359375 -2.359375q1.34375 -0.75 2.875 -0.75q2.171875 0 3.421875 0.96875l0 -9.984375zm16.16864 9.015625q6.09375 0 6.09375 7.734375q0 1.578125 -0.125 3.265625q-0.109375 1.671875 -0.40625 2.96875q-1.25 0.25 -2.640625 0.390625q-1.390625 0.140625 -2.765625 0.234375q-1.359375 0.09375 -2.5625 0.125q-1.1875 0.015625 -2.0625 0.015625q0.046875 1.921875 0.359375 3.171875q0.3125 1.25 0.84375 1.96875q0.53125 0.71875 1.34375 1.015625q0.8125 0.28125 1.921875 0.28125q1.4375 0 2.828125 -0.40625q1.390625 -0.40625 2.640625 -1.078125q0.1875 0.53125 0.265625 1.296875q0.078125 0.765625 0.078125 1.34375q0 0.578125 -0.53125 1.0625q-0.53125 0.46875 -1.453125 0.828125q-0.90625 0.359375 -2.109375 0.546875q-1.1875 0.203125 -2.53125 0.203125q-1.6875 0 -3.109375 -0.4375q-1.40625 -0.4375 -2.421875 -1.65625q-1.0 -1.21875 -1.578125 -3.421875q-0.578125 -2.21875 -0.578125 -5.71875q0 -4.515625 0.734375 -7.21875q0.75 -2.71875 1.921875 -4.15625q1.1875 -1.4375 2.71875 -1.890625q1.546875 -0.46875 3.125 -0.46875zm-0.4375 3.40625q-0.71875 0 -1.390625 0.359375q-0.671875 0.359375 -1.21875 1.296875q-0.546875 0.9375 -0.921875 2.5q-0.359375 1.5625 -0.453125 4.015625q0.671875 0 1.53125 0q0.875 0 1.765625 -0.078125q0.890625 -0.078125 1.71875 -0.171875q0.84375 -0.09375 1.46875 -0.28125q0.140625 -0.671875 0.1875 -1.4375q0.046875 -0.765625 0.046875 -1.4375q-0.046875 -2.59375 -0.625 -3.671875q-0.5625 -1.09375 -2.109375 -1.09375z" fill-rule="nonzero"></path><path fill="#8bab42" d="m602.267 224.15263l108.816345 0l0 62.16371c-54.408142 0 -54.408142 23.685516 -108.816345 10.227844z" fill-rule="nonzero"></path><path stroke="#666666" stroke-width="2.0" stroke-linejoin="round" stroke-linecap="butt" d="m602.267 224.15263l108.816345 0l0 62.16371c-54.408142 0 -54.408142 23.685516 -108.816345 10.227844z" fill-rule="nonzero"></path><path fill="#8bab42" d="m602.267 321.24188l108.816345 0l0 62.163696c-54.408142 0 -54.408142 23.685516 -108.816345 10.227844z" fill-rule="nonzero"></path><path stroke="#666666" stroke-width="2.0" stroke-linejoin="round" stroke-linecap="butt" d="m602.267 321.24188l108.816345 0l0 62.163696c-54.408142 0 -54.408142 23.685516 -108.816345 10.227844z" fill-rule="nonzero"></path><path fill="#8bab42" d="m602.267 418.33112l108.816345 0l0 62.163696c-54.408142 0 -54.408142 23.685516 -108.816345 10.227844z" fill-rule="nonzero"></path><path stroke="#666666" stroke-width="2.0" stroke-linejoin="round" stroke-linecap="butt" d="m602.267 418.33112l108.816345 0l0 62.163696c-54.408142 0 -54.408142 23.685516 -108.816345 10.227844z" fill-rule="nonzero"></path><path fill="#8bab42" d="m602.267 515.42035l108.816345 0l0 62.163696c-54.408142 0 -54.408142 23.685547 -108.816345 10.227844z" fill-rule="nonzero"></path><path stroke="#666666" stroke-width="2.0" stroke-linejoin="round" stroke-linecap="butt" d="m602.267 515.42035l108.816345 0l0 62.163696c-54.408142 0 -54.408142 23.685547 -108.816345 10.227844z" fill-rule="nonzero"></path><path fill="#000000" fill-opacity="0.0" d="m421.73227 40.92126l148.53543 0l0 103.49605l-148.53543 0z" fill-rule="nonzero"></path><path fill="#666666" d="m446.2479 85.68688q3.125 0 5.078125 0.484375q1.96875 0.46875 3.078125 1.15625q1.125 0.671875 1.515625 1.484375q0.40625 0.796875 0.40625 1.359375q0 1.671875 -1.4375 3.265625q-3.4375 -2.078125 -7.84375 -2.078125q-2.796875 0 -4.5625 1.0q-1.75 1.0 -1.75 2.84375q0 1.125 0.5625 2.203125q0.5625 1.078125 2.640625 2.765625l7.4375 6.0q2.5625 2.546875 3.640625 4.75q1.078125 2.203125 1.078125 5.25q0 5.359375 -3.53125 8.234375q-3.515625 2.875 -9.671875 2.875q-4.3125 0 -7.03125 -1.0q-2.71875 -1.0 -2.71875 -3.078125q0 -0.71875 0.234375 -1.671875q0.234375 -0.96875 0.875 -2.09375q3.4375 2.0 8.0 2.0q3.046875 0 4.765625 -1.265625q1.71875 -1.28125 1.71875 -3.6875q0 -1.59375 -0.6875 -3.109375q-0.671875 -1.53125 -2.515625 -3.125l-7.75 -6.640625q-2.734375 -2.25 -3.65625 -4.359375q-0.90625 -2.125 -0.90625 -4.125q0 -4.15625 3.15625 -6.796875q3.15625 -2.640625 9.875 -2.640625zm15.771851 3.203125q5.03125 -3.203125 11.671875 -3.203125q2.953125 0 5.359375 0.765625q2.40625 0.75 4.125 2.640625q1.71875 1.875 2.640625 5.109375q0.921875 3.234375 0.921875 8.125q0 8.078125 -1.09375 13.0q-1.078125 4.921875 -2.84375 7.5625q-1.75 2.640625 -3.875 3.515625q-2.109375 0.875 -4.109375 0.875q-2.25 0 -3.84375 -0.6875q-1.59375 -0.671875 -2.484375 -1.546875l0 16.640633q-0.796875 0.3125 -1.6875 0.4375q-0.875 0.125 -1.671875 0.125q-1.671875 0 -2.390625 -0.609375q-0.71875 -0.59375 -0.71875 -2.203125l0 -50.546883zm6.46875 29.90625q0.890625 1.375 2.0 2.015625q1.125 0.625 2.328125 0.625q0.953125 0 2.109375 -0.515625q1.171875 -0.515625 2.171875 -2.4375q1.0 -1.921875 1.71875 -5.5625q0.71875 -3.640625 0.71875 -9.875q0 -3.609375 -0.40625 -5.84375q-0.390625 -2.234375 -1.15625 -3.546875q-0.765625 -1.328125 -1.921875 -1.8125q-1.15625 -0.484375 -2.671875 -0.484375q-2.734375 0 -4.890625 1.53125l0 25.90625zm30.639984 6.40625q0 0.484375 -0.125 0.765625q-0.109375 0.28125 -0.71875 0.40625q-0.59375 0.109375 -1.921875 0.109375q-1.3125 0 -3.703125 0l0 -55.84375q0 -1.109375 0.265625 -1.703125q0.28125 -0.609375 1.0 -0.890625q0.734375 -0.28125 2.0 -0.3125q1.28125 -0.046875 3.203125 -0.046875l0 57.515625zm13.996216 0q0 0.484375 -0.125 0.765625q-0.109375 0.28125 -0.75 0.40625q-0.640625 0.109375 -1.96875 0.109375q-1.3125 0 -3.78125 0l0 -37.046875q0 -1.109375 0.265625 -1.703125q0.28125 -0.609375 1.046875 -0.890625q0.765625 -0.28125 2.03125 -0.3125q1.28125 -0.046875 3.28125 -0.046875l0 38.71875zm-6.3125 -51.4375q0.078125 -2.15625 0.953125 -3.46875q0.890625 -1.328125 2.8125 -1.328125q1.828125 0 2.546875 1.046875q0.734375 1.03125 0.640625 3.59375q0 2.46875 -0.921875 3.828125q-0.90625 1.359375 -2.75 1.359375q-1.59375 0 -2.4375 -1.109375q-0.84375 -1.125 -0.84375 -3.921875zm16.875 18.3125l-5.4375 0q0 -1.828125 0.03125 -2.953125q0.046875 -1.125 0.171875 -1.71875q0.125 -0.609375 0.4375 -0.765625q0.328125 -0.15625 0.796875 -0.15625l4.0 0l0 -12.15625q0 -0.796875 0.28125 -1.28125q0.28125 -0.484375 1.0 -0.671875q0.71875 -0.203125 2.0 -0.25q1.28125 -0.046875 3.28125 -0.046875l0 14.40625l8.15625 0q0 1.921875 -0.046875 3.0q-0.03125 1.078125 -0.15625 1.6875q-0.109375 0.59375 -0.359375 0.75q-0.234375 0.15625 -0.71875 0.15625l-6.875 0l0 23.28125q0 1.28125 0.03125 2.453125q0.046875 1.15625 0.328125 2.0q0.28125 0.828125 0.84375 1.359375q0.5625 0.515625 1.671875 0.515625q1.375 0 2.40625 -0.28125q1.046875 -0.28125 2.234375 -0.921875q0.171875 0.640625 0.328125 1.4375q0.15625 0.796875 0.15625 1.765625q0 1.109375 -0.640625 1.796875q-0.640625 0.6875 -1.640625 1.078125q-1.0 0.40625 -2.203125 0.5625q-1.1875 0.15625 -2.390625 0.15625q-2.5625 0 -4.09375 -0.828125q-1.515625 -0.84375 -2.3125 -2.40625q-0.796875 -1.5625 -1.046875 -3.765625q-0.234375 -2.203125 -0.234375 -4.921875l0 -23.28125z" fill-rule="nonzero"></path></g></svg>

